<mxfile host="Electron" agent="Mozilla/5.0 (Macintosh; Intel Mac OS X 10_15_7) AppleWebKit/537.36 (KHTML, like Gecko) draw.io/27.0.9 Chrome/134.0.6998.205 Electron/35.4.0 Safari/537.36" version="27.0.9">
  <diagram name="Seite-1" id="NrbdtOU8l5xmAe7ymhUr">
    <mxGraphModel dx="1410" dy="-395" grid="1" gridSize="10" guides="1" tooltips="1" connect="1" arrows="1" fold="1" page="1" pageScale="1" pageWidth="827" pageHeight="1169" math="0" shadow="0">
      <root>
        <mxCell id="0" />
        <mxCell id="1" parent="0" />
        <mxCell id="yyMdStUEMTOf8_kPWBQJ-1" value="" style="rounded=0;whiteSpace=wrap;html=1;" vertex="1" parent="1">
          <mxGeometry y="1420" width="810" height="380" as="geometry" />
        </mxCell>
        <mxCell id="7fS5oWLQzM0IxhjuAHD0-46" value="Service" style="shape=cube;whiteSpace=wrap;html=1;boundedLbl=1;backgroundOutline=1;darkOpacity=0.05;darkOpacity2=0.1;labelPosition=center;verticalLabelPosition=top;align=center;verticalAlign=bottom;" parent="1" vertex="1">
          <mxGeometry x="140" y="1460" width="470" height="300" as="geometry" />
        </mxCell>
        <mxCell id="7fS5oWLQzM0IxhjuAHD0-76" value="" style="shape=hexagon;perimeter=hexagonPerimeter2;whiteSpace=wrap;html=1;fixedSize=1;" parent="1" vertex="1">
          <mxGeometry x="300.5" y="1575" width="209.5" height="90" as="geometry" />
        </mxCell>
        <mxCell id="xvrhfz1lwZkFJ9HOuA8B-21" style="edgeStyle=orthogonalEdgeStyle;rounded=0;orthogonalLoop=1;jettySize=auto;html=1;exitX=0.5;exitY=1;exitDx=0;exitDy=0;entryX=0.5;entryY=0;entryDx=0;entryDy=0;endArrow=none;startFill=0;" parent="1" source="7fS5oWLQzM0IxhjuAHD0-54" target="xvrhfz1lwZkFJ9HOuA8B-15" edge="1">
          <mxGeometry relative="1" as="geometry" />
        </mxCell>
        <mxCell id="7fS5oWLQzM0IxhjuAHD0-54" value="API (in)" style="rounded=0;whiteSpace=wrap;html=1;labelPosition=center;verticalLabelPosition=middle;align=center;verticalAlign=middle;strokeColor=light-dark(#000000,#FF8000);" parent="1" vertex="1">
          <mxGeometry x="200.5" y="1555" width="72" height="50" as="geometry" />
        </mxCell>
        <mxCell id="7fS5oWLQzM0IxhjuAHD0-56" value="API (out)" style="rounded=0;whiteSpace=wrap;html=1;labelPosition=center;verticalLabelPosition=middle;align=center;verticalAlign=middle;strokeColor=light-dark(#000000,#FF8000);" parent="1" vertex="1">
          <mxGeometry x="488" y="1505" width="92" height="50" as="geometry" />
        </mxCell>
        <mxCell id="xvrhfz1lwZkFJ9HOuA8B-13" style="edgeStyle=orthogonalEdgeStyle;rounded=0;orthogonalLoop=1;jettySize=auto;html=1;exitX=1;exitY=0.5;exitDx=0;exitDy=0;entryX=0;entryY=0.5;entryDx=0;entryDy=0;endArrow=none;startFill=0;" parent="1" source="7fS5oWLQzM0IxhjuAHD0-57" target="xvrhfz1lwZkFJ9HOuA8B-10" edge="1">
          <mxGeometry relative="1" as="geometry" />
        </mxCell>
        <mxCell id="7fS5oWLQzM0IxhjuAHD0-57" value="Business" style="rounded=0;whiteSpace=wrap;html=1;labelPosition=center;verticalLabelPosition=middle;align=center;verticalAlign=middle;strokeColor=light-dark(#000000,#009900);" parent="1" vertex="1">
          <mxGeometry x="338" y="1595" width="92" height="50" as="geometry" />
        </mxCell>
        <mxCell id="7fS5oWLQzM0IxhjuAHD0-80" value="DB" style="rounded=0;whiteSpace=wrap;html=1;labelPosition=center;verticalLabelPosition=middle;align=center;verticalAlign=middle;strokeColor=light-dark(#000000,#FF8000);" parent="1" vertex="1">
          <mxGeometry x="488" y="1680" width="92" height="50" as="geometry" />
        </mxCell>
        <mxCell id="xvrhfz1lwZkFJ9HOuA8B-3" value="Service" style="shape=cube;whiteSpace=wrap;html=1;boundedLbl=1;backgroundOutline=1;darkOpacity=0.05;darkOpacity2=0.1;labelPosition=center;verticalLabelPosition=top;align=center;verticalAlign=bottom;" parent="1" vertex="1">
          <mxGeometry x="680" y="1575" width="90" height="65" as="geometry" />
        </mxCell>
        <mxCell id="xvrhfz1lwZkFJ9HOuA8B-5" value="DB" style="strokeWidth=2;html=1;shape=mxgraph.flowchart.database;whiteSpace=wrap;labelPosition=center;verticalLabelPosition=bottom;align=center;verticalAlign=top;" parent="1" vertex="1">
          <mxGeometry x="700" y="1675" width="60" height="60" as="geometry" />
        </mxCell>
        <mxCell id="xvrhfz1lwZkFJ9HOuA8B-6" style="edgeStyle=orthogonalEdgeStyle;rounded=0;orthogonalLoop=1;jettySize=auto;html=1;exitX=1;exitY=0.5;exitDx=0;exitDy=0;entryX=0;entryY=0.5;entryDx=0;entryDy=0;entryPerimeter=0;" parent="1" source="7fS5oWLQzM0IxhjuAHD0-80" target="xvrhfz1lwZkFJ9HOuA8B-5" edge="1">
          <mxGeometry relative="1" as="geometry" />
        </mxCell>
        <mxCell id="xvrhfz1lwZkFJ9HOuA8B-7" style="edgeStyle=orthogonalEdgeStyle;rounded=0;orthogonalLoop=1;jettySize=auto;html=1;exitX=1;exitY=0.5;exitDx=0;exitDy=0;entryX=0;entryY=0;entryDx=0;entryDy=22.5;entryPerimeter=0;" parent="1" source="7fS5oWLQzM0IxhjuAHD0-56" target="xvrhfz1lwZkFJ9HOuA8B-3" edge="1">
          <mxGeometry relative="1" as="geometry">
            <Array as="points">
              <mxPoint x="640" y="1530" />
              <mxPoint x="640" y="1598" />
              <mxPoint x="680" y="1598" />
            </Array>
          </mxGeometry>
        </mxCell>
        <mxCell id="xvrhfz1lwZkFJ9HOuA8B-29" style="edgeStyle=orthogonalEdgeStyle;rounded=0;orthogonalLoop=1;jettySize=auto;html=1;exitX=0;exitY=0;exitDx=90;exitDy=45;exitPerimeter=0;entryX=0;entryY=0.5;entryDx=0;entryDy=0;" parent="1" source="xvrhfz1lwZkFJ9HOuA8B-8" target="xvrhfz1lwZkFJ9HOuA8B-16" edge="1">
          <mxGeometry relative="1" as="geometry" />
        </mxCell>
        <mxCell id="xvrhfz1lwZkFJ9HOuA8B-8" value="Service" style="shape=cube;whiteSpace=wrap;html=1;boundedLbl=1;backgroundOutline=1;darkOpacity=0.05;darkOpacity2=0.1;labelPosition=center;verticalLabelPosition=top;align=center;verticalAlign=bottom;" parent="1" vertex="1">
          <mxGeometry x="30" y="1485" width="90" height="70" as="geometry" />
        </mxCell>
        <mxCell id="xvrhfz1lwZkFJ9HOuA8B-11" style="edgeStyle=orthogonalEdgeStyle;rounded=0;orthogonalLoop=1;jettySize=auto;html=1;exitX=1;exitY=0.25;exitDx=0;exitDy=0;entryX=0.5;entryY=1;entryDx=0;entryDy=0;" parent="1" source="xvrhfz1lwZkFJ9HOuA8B-10" target="7fS5oWLQzM0IxhjuAHD0-56" edge="1">
          <mxGeometry relative="1" as="geometry" />
        </mxCell>
        <mxCell id="xvrhfz1lwZkFJ9HOuA8B-12" style="edgeStyle=orthogonalEdgeStyle;rounded=0;orthogonalLoop=1;jettySize=auto;html=1;exitX=1;exitY=0.75;exitDx=0;exitDy=0;entryX=0.5;entryY=0;entryDx=0;entryDy=0;" parent="1" source="xvrhfz1lwZkFJ9HOuA8B-10" target="7fS5oWLQzM0IxhjuAHD0-80" edge="1">
          <mxGeometry relative="1" as="geometry" />
        </mxCell>
        <mxCell id="xvrhfz1lwZkFJ9HOuA8B-10" value="Inter-&lt;div&gt;faces&lt;/div&gt;" style="rounded=0;whiteSpace=wrap;html=1;labelPosition=center;verticalLabelPosition=middle;align=center;verticalAlign=middle;strokeColor=light-dark(#000000,#009900);" parent="1" vertex="1">
          <mxGeometry x="440" y="1595" width="40" height="50" as="geometry" />
        </mxCell>
        <mxCell id="xvrhfz1lwZkFJ9HOuA8B-28" style="edgeStyle=orthogonalEdgeStyle;rounded=0;orthogonalLoop=1;jettySize=auto;html=1;exitX=1;exitY=0.5;exitDx=0;exitDy=0;entryX=0;entryY=0.75;entryDx=0;entryDy=0;" parent="1" source="xvrhfz1lwZkFJ9HOuA8B-15" target="7fS5oWLQzM0IxhjuAHD0-57" edge="1">
          <mxGeometry relative="1" as="geometry" />
        </mxCell>
        <mxCell id="xvrhfz1lwZkFJ9HOuA8B-15" value="evtl. ACL" style="rounded=0;whiteSpace=wrap;html=1;labelPosition=center;verticalLabelPosition=middle;align=center;verticalAlign=middle;strokeColor=light-dark(#000000,#FF8000);dashed=1;" parent="1" vertex="1">
          <mxGeometry x="200.5" y="1620" width="72" height="25" as="geometry" />
        </mxCell>
        <mxCell id="xvrhfz1lwZkFJ9HOuA8B-30" style="edgeStyle=orthogonalEdgeStyle;rounded=0;orthogonalLoop=1;jettySize=auto;html=1;exitX=0.5;exitY=1;exitDx=0;exitDy=0;entryX=0.5;entryY=0;entryDx=0;entryDy=0;endArrow=none;startFill=0;" parent="1" source="xvrhfz1lwZkFJ9HOuA8B-16" target="7fS5oWLQzM0IxhjuAHD0-54" edge="1">
          <mxGeometry relative="1" as="geometry" />
        </mxCell>
        <mxCell id="xvrhfz1lwZkFJ9HOuA8B-16" value="Security" style="rounded=0;whiteSpace=wrap;html=1;labelPosition=center;verticalLabelPosition=middle;align=center;verticalAlign=middle;strokeColor=light-dark(#000000,#FF8000);" parent="1" vertex="1">
          <mxGeometry x="200.5" y="1517.5" width="72" height="25" as="geometry" />
        </mxCell>
        <mxCell id="xvrhfz1lwZkFJ9HOuA8B-31" value="Spring" style="rounded=0;whiteSpace=wrap;html=1;labelPosition=center;verticalLabelPosition=middle;align=center;verticalAlign=middle;strokeColor=light-dark(#000000,#FF8000);" parent="1" vertex="1">
          <mxGeometry x="30" y="1680" width="72" height="20" as="geometry" />
        </mxCell>
        <mxCell id="xvrhfz1lwZkFJ9HOuA8B-32" value="Java" style="rounded=0;whiteSpace=wrap;html=1;labelPosition=center;verticalLabelPosition=middle;align=center;verticalAlign=middle;strokeColor=light-dark(#000000,#009900);" parent="1" vertex="1">
          <mxGeometry x="30" y="1710" width="72" height="20" as="geometry" />
        </mxCell>
      </root>
    </mxGraphModel>
  </diagram>
</mxfile>
